LG_Sit_Stand_Walk05																		
version=1																		
nRows=82																		
nColumns=19																		
inDegrees=yes																		
endheader																		
time	ground_force2_vx	ground_force2_vy	ground_force2_vz	ground_force2_px	ground_force2_py	ground_force2_pz	ground_torque2_x	ground_torque2_y	ground_torque2_z	ground_force1_vx	ground_force1_vy	ground_force1_vz	ground_force1_px	ground_force1_py	ground_force1_pz	ground_torque1_x	ground_torque1_y	ground_torque1_z
5.077	0	0	0	0.2	0	-0.3	0	0	0	58.729862	718.259766	-13.489358	-0.123844	0	0.317156	-7.00E-06	2.673649	-4.00E-06
5.078	0	0	0	0.2	0	-0.3	0	0	0	58.729862	715.70282	-13.175756	-0.123844	0	0.317437	-1.00E-05	2.673649	-1.00E-06
5.079	0	0	0	0.2	0	-0.3	0	0	0	59.974754	715.182861	-12.783458	-0.124111	0	0.317785	-1.00E-05	2.674034	-1.00E-06
5.08	0	0	0	0.2	0	-0.3	0	0	0	59.974754	714.325378	-10.903043	-0.124342	0	0.318416	-1.00E-05	2.674034	-1.00E-06
5.081	0	0	0	0.2	0	-0.3	0	0	0	59.036217	715.182861	-10.746463	-0.124471	0	0.318416	-1.30E-05	2.614965	-2.00E-06
5.082	0	0	0	0.2	0	-0.3	0	0	0	58.884842	717.94458	-10.746463	-0.124757	0	0.318416	-1.40E-05	2.614965	-3.00E-06
5.083	0	0	0	0.2	0	-0.3	0	0	0	58.884842	720.859802	-10.433059	-0.12481	0	0.319028	-1.60E-05	2.83951	-2.00E-06
5.084	0	0	0	0.2	0	-0.3	0	0	0	58.414131	722.060974	-10.432979	-0.12503	0	0.319159	-1.60E-05	2.882076	-3.00E-06
5.085	0	0	0	0.2	0	-0.3	0	0	0	58.414131	722.060974	-9.805972	-0.125031	0	0.319989	-1.50E-05	2.885195	-2.00E-06
5.086	0	0	0	0.2	0	-0.3	0	0	0	58.487648	721.726135	-9.492328	-0.12503	0	0.320307	-1.50E-05	2.911919	-7.00E-06
5.087	0	0	0	0.2	0	-0.3	0	0	0	59.971146	714.329834	-8.003243	-0.125235	0	0.320307	-8.00E-06	3.021847	-5.00E-06
5.088	0	0	0	0.2	0	-0.3	0	0	0	59.971146	714.329834	-7.846262	-0.125235	0	0.320333	-1.40E-05	3.165175	-5.00E-06
5.089	0	0	0	0.2	0	-0.3	0	0	0	59.422585	717.615479	-7.846262	-0.125582	0	0.321215	-9.00E-06	3.165175	-5.00E-06
5.09	0	0	0	0.2	0	-0.3	0	0	0	58.089012	718.997437	-7.611109	-0.125583	0	0.321366	-1.40E-05	3.083736	-5.00E-06
5.091	0	0	0	0.2	0	-0.3	0	0	0	58.089012	720.713501	-7.611109	-0.125711	0	0.321378	-1.20E-05	3.083736	-5.00E-06
5.092	0	0	0	0.2	0	-0.3	0	0	0	59.108292	718.997437	-7.532697	-0.125711	0	0.321654	-1.20E-05	3.045487	-5.00E-06
5.093	0	0	0	0.2	0	-0.3	0	0	0	59.108292	718.816895	-7.219215	-0.125711	0	0.321923	-9.00E-06	3.045487	-6.00E-06
5.094	0	0	0	0.2	0	-0.3	0	0	0	58.711823	716.920349	-6.6707	-0.125562	0	0.321968	-9.00E-06	3.045487	-7.00E-06
5.095	0	0	0	0.2	0	-0.3	0	0	0	57.775444	716.920349	-6.514079	-0.125542	0	0.321968	-9.00E-06	3.10091	-7.00E-06
5.096	0	0	0	0.2	0	-0.3	0	0	0	57.698318	717.109375	-6.514079	-0.125367	0	0.321968	-9.00E-06	3.10091	-7.00E-06
5.097	0	0	0	0.2	0	-0.3	0	0	0	57.69471	717.610718	-6.6707	-0.125542	0	0.321925	-1.00E-05	3.068369	-3.00E-06
5.098	0	0	0	0.2	0	-0.3	0	0	0	57.543335	717.610718	-6.6707	-0.125367	0	0.322081	-1.00E-05	3.068369	0.00E+00
5.099	0	0	0	0.2	0	-0.3	0	0	0	56.991165	716.556152	-5.730371	-0.125401	0	0.321925	-1.00E-05	3.068369	-3.00E-06
5.1	0	0	0	0.2	0	-0.3	0	0	0	56.991165	714.850891	-5.730371	-0.125339	0	0.322066	-7.00E-06	3.007519	-3.00E-06
5.101	0	0	0	0.2	0	-0.3	0	0	0	56.757614	714.850891	-5.260509	-0.125339	0	0.321795	-7.00E-06	3.007519	-3.00E-06
5.102	0	0	0	0.2	0	-0.3	0	0	0	56.756889	718.285034	-4.790203	-0.125264	0	0.322066	-8.00E-06	3.045233	-6.00E-06
5.103	0	0	0	0.2	0	-0.3	0	0	0	56.599022	718.285034	-4.47664	-0.125249	0	0.322125	-1.30E-05	3.065998	-7.00E-06
5.104	0	0	0	0.2	0	-0.3	0	0	0	55.740494	718.112976	-4.39835	-0.125264	0	0.32253	-1.90E-05	3.065998	-7.00E-06
5.105	0	0	0	0.2	0	-0.3	0	0	0	55.421875	716.576599	-3.849594	-0.125463	0	0.322531	-1.30E-05	3.026894	-7.00E-06
5.106	0	0	0	0.2	0	-0.3	0	0	0	55.344749	715.024048	-3.301078	-0.125463	0	0.322771	-9.00E-06	3.026894	-7.00E-06
5.107	0	0	0	0.2	0	-0.3	0	0	0	54.794022	712.96698	-2.830774	-0.125496	0	0.322983	-9.00E-06	3.029767	-7.00E-06
5.108	0	0	0	0.2	0	-0.3	0	0	0	54.246899	712.96698	-2.595782	-0.125811	0	0.323669	-1.00E-05	3.029767	-7.00E-06
5.109	0	0	0	0.2	0	-0.3	0	0	0	53.854759	718.118225	-2.360589	-0.125811	0	0.323669	-1.00E-05	3.029767	-5.00E-06
5.11	0	0	0	0.2	0	-0.3	0	0	0	53.854034	718.118225	-2.360589	-0.12586	0	0.323925	-7.00E-06	3.074534	-7.00E-06
5.111	0	0	0	0.2	0	-0.3	0	0	0	53.854034	713.332214	-2.203768	-0.12586	0	0.324283	-7.00E-06	3.079054	-5.00E-06
5.112	0	0	0	0.2	0	-0.3	0	0	0	53.539024	713.332214	-1.184988	-0.12586	0	0.324313	-7.00E-06	3.098191	-5.00E-06
5.113	0	0	0	0.2	0	-0.3	0	0	0	53.226173	713.332214	-0.793214	-0.126119	0	0.324776	-5.00E-06	3.129088	-4.00E-06
5.114	0	0	0	0.2	0	-0.3	0	0	0	52.991905	713.82666	-0.793214	-0.126119	0	0.324852	-5.00E-06	3.129088	-4.00E-06
5.115	0	0	0	0.2	0	-0.3	0	0	0	52.991905	715.042419	-0.63603	-0.126119	0	0.325325	-1.10E-05	3.074996	-2.00E-06
5.116	0	0	0	0.2	0	-0.3	0	0	0	52.674004	715.042419	-1.184626	-0.126036	0	0.325325	-1.30E-05	3.043538	-2.00E-06
5.117	0	0	0	0.2	0	-0.3	0	0	0	52.202568	713.487549	-0.63603	-0.12603	0	0.325224	-1.10E-05	3.039369	-3.00E-06
5.118	0	0	0	0.2	0	-0.3	0	0	0	52.202568	711.438965	-0.087435	-0.125802	0	0.325224	-9.00E-06	3.039369	-7.00E-06
5.119	0	0	0	0.2	0	-0.3	0	0	0	52.437569	710.39209	0.069186	-0.125802	0	0.3245	-9.00E-06	3.039369	-9.00E-06
5.12	0	0	0	0.2	0	-0.3	0	0	0	52.437569	709.896118	0.774161	-0.125802	0	0.324837	-2.00E-06	2.976092	-9.00E-06
5.121	0	0	0	0.2	0	-0.3	0	0	0	52.437569	709.896118	0.930903	-0.126126	0	0.324837	-9.00E-06	2.976092	-8.00E-06
5.122	0	0	0	0.2	0	-0.3	0	0	0	52.358994	711.240723	0.930903	-0.126126	0	0.32583	-1.10E-05	2.976092	-3.00E-06
5.123	0	0	0	0.2	0	-0.3	0	0	0	51.729691	711.240723	1.087764	-0.126039	0	0.32583	-1.10E-05	2.967971	-6.00E-06
5.124	0	0	0	0.2	0	-0.3	0	0	0	51.026146	708.851929	1.166055	-0.126039	0	0.325504	-1.10E-05	2.967971	-3.00E-06
5.125	0	0	0	0.2	0	-0.3	0	0	0	50.86972	708.850403	1.63636	-0.126039	0	0.325504	-1.00E-06	2.978353	-2.00E-06
5.126	0	0	0	0.2	0	-0.3	0	0	0	51.026146	708.850403	2.028133	-0.126055	0	0.325533	-1.00E-06	3.003648	-2.00E-06
5.127	0	0	0	0.2	0	-0.3	0	0	0	51.099667	705.238403	3.595348	-0.126134	0	0.326322	-1.00E-06	3.003648	-1.00E-06
5.128	0	0	0	0.2	0	-0.3	0	0	0	51.099667	705.238403	3.595348	-0.126347	0	0.326352	3.00E-06	2.991425	-1.00E-06
5.129	0	0	0	0.2	0	-0.3	0	0	0	50.235371	705.238403	3.282307	-0.126347	0	0.326465	3.00E-06	2.91319	-2.00E-06
5.13	0	0	0	0.2	0	-0.3	0	0	0	49.922523	703.696289	3.282307	-0.126038	0	0.326465	-9.00E-06	2.91319	-2.00E-06
5.131	0	0	0	0.2	0	-0.3	0	0	0	49.686806	703.696289	3.909233	-0.126038	0	0.326683	-1.20E-05	2.942492	-2.00E-06
5.132	0	0	0	0.2	0	-0.3	0	0	0	49.686806	703.713196	4.066055	-0.126443	0	0.32701	-1.20E-05	2.942492	-2.00E-06
5.133	0	0	0	0.2	0	-0.3	0	0	0	49.686806	703.713196	4.222635	-0.126463	0	0.327113	-7.00E-06	2.888121	-2.00E-06
5.134	0	0	0	0.2	0	-0.3	0	0	0	49.52533	702.332703	4.771391	-0.126463	0	0.327598	2.00E-06	2.888121	-1.00E-06
5.135	0	0	0	0.2	0	-0.3	0	0	0	49.52533	701.644531	4.928174	-0.126281	0	0.328008	-7.00E-06	2.906798	-1.00E-06
5.136	0	0	0	0.2	0	-0.3	0	0	0	49.52533	700.791748	4.928174	-0.126281	0	0.328008	-1.00E-05	2.906798	-7.00E-06
5.137	0	0	0	0.2	0	-0.3	0	0	0	48.115356	700.791748	4.928174	-0.126352	0	0.327906	-1.00E-05	2.888709	-7.00E-06
5.138	0	0	0	0.2	0	-0.3	0	0	0	48.115356	700.791748	5.085036	-0.126352	0	0.327906	-1.30E-05	2.888709	-7.00E-06
5.139	0	0	0	0.2	0	-0.3	0	0	0	49.518116	699.053223	5.633711	-0.126232	0	0.328394	0.00E+00	2.888709	-4.00E-06
5.14	0	0	0	0.2	0	-0.3	0	0	0	49.518116	697.519958	5.947074	-0.126232	0	0.329032	-2.10E-05	2.749757	-4.00E-06
5.141	0	0	0	0.2	0	-0.3	0	0	0	48.421707	696.830322	5.947074	-0.126193	0	0.328566	-2.00E-05	2.74795	-4.00E-06
5.142	0	0	0	0.2	0	-0.3	0	0	0	48.34169	696.484314	5.947074	-0.126285	0	0.328566	-2.00E-05	2.749757	-4.00E-06
5.143	0	0	0	0.2	0	-0.3	0	0	0	48.028847	692.199707	6.025726	-0.126088	0	0.328543	1.00E-06	2.777685	-3.00E-06
5.144	0	0	0	0.2	0	-0.3	0	0	0	47.8717	692.199707	6.5742	-0.126285	0	0.328543	1.00E-06	2.793065	0
5.145	0	0	0	0.2	0	-0.3	0	0	0	47.8717	692.87738	7.201288	-0.126223	0	0.329083	-2.30E-05	2.87857	0.00E+00
5.146	0	0	0	0.2	0	-0.3	0	0	0	47.8717	692.87738	7.279578	-0.12642	0	0.329636	-2.30E-05	2.87857	-6.00E-06
5.147	0	0	0	0.2	0	-0.3	0	0	0	47.790962	685.834412	7.593102	-0.126223	0	0.329636	-1.80E-05	2.855298	-6.00E-06
5.148	0	0	0	0.2	0	-0.3	0	0	0	47.476673	685.834412	7.593102	-0.12613	0	0.329701	-1.50E-05	2.850894	-5.00E-06
5.149	0	0	0	0.2	0	-0.3	0	0	0	46.300972	687.048645	7.828334	-0.12613	0	0.329592	-1.50E-05	2.763941	0
5.15	0	0	0	0.2	0	-0.3	0	0	0	46.29953	687.048645	8.141978	-0.12626	0	0.329917	-1.50E-05	2.697391	0
5.151	0	0	0	0.2	0	-0.3	0	0	0	46.29953	686.693359	8.533711	-0.12626	0	0.330502	-1.20E-05	2.706154	-3.00E-06
5.152	0	0	0	0.2	0	-0.3	0	0	0	46.296638	684.81488	8.533711	-0.126171	0	0.330502	-1.20E-05	2.697391	-8.00E-06
5.153	0	0	0	0.2	0	-0.3	0	0	0	46.371605	682.746277	8.533711	-0.126171	0	0.330356	-1.30E-05	2.644529	-8.00E-06
5.154	0	0	0	0.2	0	-0.3	0	0	0	46.059479	681.726013	9.004057	-0.126364	0	0.330356	-1.30E-05	2.644529	-8.00E-06
5.155	0	0	0	0.2	0	-0.3	0	0	0	45.196625	680.343994	9.31766	-0.126364	0	0.330837	-1.00E-05	2.652181	-9.00E-06
5.156	0	0	0	0.2	0	-0.3	0	0	0	45.040203	681.726013	9.31766	-0.126259	0	0.330837	3.00E-06	2.652181	0.00E+00
5.157	0	0	0	0.2	0	-0.3	0	0	0	45.040203	682.772888	9.631184	-0.126258	0	0.330837	3.00E-06	2.61947	-3.00E-06
5.158	0	0	0	0.2	0	-0.3	0	0	0	45.114445	682.772888	9.788046	-0.126247	0	0.331271	0	2.61947	-2.00E-06
